<svg width="1440" height="1008" viewBox="0 0 1440 1008" fill="none" xmlns="http://www.w3.org/2000/svg">
<rect y="70" width="2" height="2" fill="#BCFE2F" fill-opacity="0.38"/>
<rect x="72" y="70" width="2" height="2" fill="#BCFE2F" fill-opacity="0.38"/>
<rect x="144" y="70" width="2" height="2" fill="#BCFE2F" fill-opacity="0.38"/>
<rect x="216" y="70" width="2" height="2" fill="#BCFE2F" fill-opacity="0.38"/>
<rect x="288" y="70" width="2" height="2" fill="#BCFE2F" fill-opacity="0.38"/>
<rect x="360" y="70" width="2" height="2" fill="#BCFE2F" fill-opacity="0.38"/>
<rect x="432" y="70" width="2" height="2" fill="#BCFE2F" fill-opacity="0.38"/>
<rect x="504" y="70" width="2" height="2" fill="#BCFE2F" fill-opacity="0.38"/>
<rect x="576" y="70" width="2" height="2" fill="#BCFE2F" fill-opacity="0.38"/>
<rect x="648" y="70" width="2" height="2" fill="#BCFE2F" fill-opacity="0.38"/>
<rect x="720" y="70" width="2" height="2" fill="#BCFE2F" fill-opacity="0.38"/>
<rect x="792" y="70" width="2" height="2" fill="#BCFE2F" fill-opacity="0.38"/>
<rect x="864" y="70" width="2" height="2" fill="#BCFE2F" fill-opacity="0.38"/>
<rect x="936" y="70" width="2" height="2" fill="#BCFE2F" fill-opacity="0.38"/>
<rect x="1008" y="70" width="2" height="2" fill="#BCFE2F" fill-opacity="0.38"/>
<rect x="1080" y="70" width="2" height="2" fill="#BCFE2F" fill-opacity="0.38"/>
<rect x="1152" y="70" width="2" height="2" fill="#BCFE2F" fill-opacity="0.38"/>
<rect x="1224" y="70" width="2" height="2" fill="#BCFE2F" fill-opacity="0.38"/>
<rect x="1296" y="70" width="2" height="2" fill="#BCFE2F" fill-opacity="0.38"/>
<rect x="1368" y="70" width="2" height="2" fill="#BCFE2F" fill-opacity="0.38"/>
<rect y="142" width="2" height="2" fill="#BCFE2F" fill-opacity="0.38"/>
<rect x="72" y="142" width="2" height="2" fill="#BCFE2F" fill-opacity="0.38"/>
<rect x="144" y="142" width="2" height="2" fill="#BCFE2F" fill-opacity="0.38"/>
<rect x="216" y="142" width="2" height="2" fill="#BCFE2F" fill-opacity="0.38"/>
<rect x="288" y="142" width="2" height="2" fill="#BCFE2F" fill-opacity="0.38"/>
<rect x="360" y="142" width="2" height="2" fill="#BCFE2F" fill-opacity="0.38"/>
<rect x="432" y="142" width="2" height="2" fill="#BCFE2F" fill-opacity="0.38"/>
<rect x="504" y="142" width="2" height="2" fill="#BCFE2F" fill-opacity="0.38"/>
<rect x="576" y="142" width="2" height="2" fill="#BCFE2F" fill-opacity="0.38"/>
<rect x="648" y="142" width="2" height="2" fill="#BCFE2F" fill-opacity="0.38"/>
<rect x="720" y="142" width="2" height="2" fill="#BCFE2F" fill-opacity="0.38"/>
<rect x="792" y="142" width="2" height="2" fill="#BCFE2F" fill-opacity="0.38"/>
<rect x="864" y="142" width="2" height="2" fill="#BCFE2F" fill-opacity="0.38"/>
<rect x="936" y="142" width="2" height="2" fill="#BCFE2F" fill-opacity="0.38"/>
<rect x="1008" y="142" width="2" height="2" fill="#BCFE2F" fill-opacity="0.38"/>
<rect x="1080" y="142" width="2" height="2" fill="#BCFE2F" fill-opacity="0.38"/>
<rect x="1152" y="142" width="2" height="2" fill="#BCFE2F" fill-opacity="0.38"/>
<rect x="1224" y="142" width="2" height="2" fill="#BCFE2F" fill-opacity="0.38"/>
<rect x="1296" y="142" width="2" height="2" fill="#BCFE2F" fill-opacity="0.38"/>
<rect x="1368" y="142" width="2" height="2" fill="#BCFE2F" fill-opacity="0.38"/>
<rect y="214" width="2" height="2" fill="#BCFE2F" fill-opacity="0.38"/>
<rect x="72" y="214" width="2" height="2" fill="#BCFE2F" fill-opacity="0.38"/>
<rect x="144" y="214" width="2" height="2" fill="#BCFE2F" fill-opacity="0.38"/>
<rect x="216" y="214" width="2" height="2" fill="#BCFE2F" fill-opacity="0.38"/>
<rect x="288" y="214" width="2" height="2" fill="#BCFE2F" fill-opacity="0.38"/>
<rect x="360" y="214" width="2" height="2" fill="#BCFE2F" fill-opacity="0.38"/>
<rect x="432" y="214" width="2" height="2" fill="#BCFE2F" fill-opacity="0.38"/>
<rect x="504" y="214" width="2" height="2" fill="#BCFE2F" fill-opacity="0.38"/>
<rect x="576" y="214" width="2" height="2" fill="#BCFE2F" fill-opacity="0.38"/>
<rect x="648" y="214" width="2" height="2" fill="#BCFE2F" fill-opacity="0.38"/>
<rect x="720" y="214" width="2" height="2" fill="#BCFE2F" fill-opacity="0.38"/>
<rect x="792" y="214" width="2" height="2" fill="#BCFE2F" fill-opacity="0.38"/>
<rect x="864" y="214" width="2" height="2" fill="#BCFE2F" fill-opacity="0.38"/>
<rect x="936" y="214" width="2" height="2" fill="#BCFE2F" fill-opacity="0.38"/>
<rect x="1008" y="214" width="2" height="2" fill="#BCFE2F" fill-opacity="0.38"/>
<rect x="1080" y="214" width="2" height="2" fill="#BCFE2F" fill-opacity="0.38"/>
<rect x="1152" y="214" width="2" height="2" fill="#BCFE2F" fill-opacity="0.38"/>
<rect x="1224" y="214" width="2" height="2" fill="#BCFE2F" fill-opacity="0.38"/>
<rect x="1296" y="214" width="2" height="2" fill="#BCFE2F" fill-opacity="0.38"/>
<rect x="1368" y="214" width="2" height="2" fill="#BCFE2F" fill-opacity="0.38"/>
<rect y="286" width="2" height="2" fill="#BCFE2F" fill-opacity="0.38"/>
<rect x="72" y="286" width="2" height="2" fill="#BCFE2F" fill-opacity="0.38"/>
<rect x="144" y="286" width="2" height="2" fill="#BCFE2F" fill-opacity="0.38"/>
<rect x="216" y="286" width="2" height="2" fill="#BCFE2F" fill-opacity="0.38"/>
<rect x="288" y="286" width="2" height="2" fill="#BCFE2F" fill-opacity="0.38"/>
<rect x="360" y="286" width="2" height="2" fill="#BCFE2F" fill-opacity="0.38"/>
<rect x="432" y="286" width="2" height="2" fill="#BCFE2F" fill-opacity="0.38"/>
<rect x="504" y="286" width="2" height="2" fill="#BCFE2F" fill-opacity="0.38"/>
<rect x="576" y="286" width="2" height="2" fill="#BCFE2F" fill-opacity="0.38"/>
<rect x="648" y="286" width="2" height="2" fill="#BCFE2F" fill-opacity="0.38"/>
<rect x="720" y="286" width="2" height="2" fill="#BCFE2F" fill-opacity="0.38"/>
<rect x="792" y="286" width="2" height="2" fill="#BCFE2F" fill-opacity="0.38"/>
<rect x="864" y="286" width="2" height="2" fill="#BCFE2F" fill-opacity="0.38"/>
<rect x="936" y="286" width="2" height="2" fill="#BCFE2F" fill-opacity="0.38"/>
<rect x="1008" y="286" width="2" height="2" fill="#BCFE2F" fill-opacity="0.38"/>
<rect x="1080" y="286" width="2" height="2" fill="#BCFE2F" fill-opacity="0.38"/>
<rect x="1152" y="286" width="2" height="2" fill="#BCFE2F" fill-opacity="0.38"/>
<rect x="1224" y="286" width="2" height="2" fill="#BCFE2F" fill-opacity="0.38"/>
<rect x="1296" y="286" width="2" height="2" fill="#BCFE2F" fill-opacity="0.38"/>
<rect x="1368" y="286" width="2" height="2" fill="#BCFE2F" fill-opacity="0.38"/>
<rect y="358" width="2" height="2" fill="#BCFE2F" fill-opacity="0.38"/>
<rect x="72" y="358" width="2" height="2" fill="#BCFE2F" fill-opacity="0.38"/>
<rect x="144" y="358" width="2" height="2" fill="#BCFE2F" fill-opacity="0.38"/>
<rect x="216" y="358" width="2" height="2" fill="#BCFE2F" fill-opacity="0.38"/>
<rect x="288" y="358" width="2" height="2" fill="#BCFE2F" fill-opacity="0.38"/>
<rect x="360" y="358" width="2" height="2" fill="#BCFE2F" fill-opacity="0.38"/>
<rect x="432" y="358" width="2" height="2" fill="#BCFE2F" fill-opacity="0.38"/>
<rect x="504" y="358" width="2" height="2" fill="#BCFE2F" fill-opacity="0.38"/>
<rect x="576" y="358" width="2" height="2" fill="#BCFE2F" fill-opacity="0.38"/>
<rect x="648" y="358" width="2" height="2" fill="#BCFE2F" fill-opacity="0.38"/>
<rect x="720" y="358" width="2" height="2" fill="#BCFE2F" fill-opacity="0.38"/>
<rect x="792" y="358" width="2" height="2" fill="#BCFE2F" fill-opacity="0.38"/>
<rect x="864" y="358" width="2" height="2" fill="#BCFE2F" fill-opacity="0.38"/>
<rect x="936" y="358" width="2" height="2" fill="#BCFE2F" fill-opacity="0.38"/>
<rect x="1008" y="358" width="2" height="2" fill="#BCFE2F" fill-opacity="0.38"/>
<rect x="1080" y="358" width="2" height="2" fill="#BCFE2F" fill-opacity="0.38"/>
<rect x="1152" y="358" width="2" height="2" fill="#BCFE2F" fill-opacity="0.38"/>
<rect x="1224" y="358" width="2" height="2" fill="#BCFE2F" fill-opacity="0.38"/>
<rect x="1296" y="358" width="2" height="2" fill="#BCFE2F" fill-opacity="0.38"/>
<rect x="1368" y="358" width="2" height="2" fill="#BCFE2F" fill-opacity="0.38"/>
<rect y="430" width="2" height="2" fill="#BCFE2F" fill-opacity="0.38"/>
<rect x="72" y="430" width="2" height="2" fill="#BCFE2F" fill-opacity="0.38"/>
<rect x="144" y="430" width="2" height="2" fill="#BCFE2F" fill-opacity="0.38"/>
<rect x="216" y="430" width="2" height="2" fill="#BCFE2F" fill-opacity="0.38"/>
<rect x="288" y="430" width="2" height="2" fill="#BCFE2F" fill-opacity="0.38"/>
<rect x="360" y="430" width="2" height="2" fill="#BCFE2F" fill-opacity="0.38"/>
<rect x="432" y="430" width="2" height="2" fill="#BCFE2F" fill-opacity="0.38"/>
<rect x="504" y="430" width="2" height="2" fill="#BCFE2F" fill-opacity="0.38"/>
<rect x="576" y="430" width="2" height="2" fill="#BCFE2F" fill-opacity="0.38"/>
<rect x="648" y="430" width="2" height="2" fill="#BCFE2F" fill-opacity="0.38"/>
<rect x="720" y="430" width="2" height="2" fill="#BCFE2F" fill-opacity="0.38"/>
<rect x="792" y="430" width="2" height="2" fill="#BCFE2F" fill-opacity="0.38"/>
<rect x="864" y="430" width="2" height="2" fill="#BCFE2F" fill-opacity="0.38"/>
<rect x="936" y="430" width="2" height="2" fill="#BCFE2F" fill-opacity="0.38"/>
<rect x="1008" y="430" width="2" height="2" fill="#BCFE2F" fill-opacity="0.38"/>
<rect x="1080" y="430" width="2" height="2" fill="#BCFE2F" fill-opacity="0.38"/>
<rect x="1152" y="430" width="2" height="2" fill="#BCFE2F" fill-opacity="0.38"/>
<rect x="1224" y="430" width="2" height="2" fill="#BCFE2F" fill-opacity="0.38"/>
<rect x="1296" y="430" width="2" height="2" fill="#BCFE2F" fill-opacity="0.38"/>
<rect x="1368" y="430" width="2" height="2" fill="#BCFE2F" fill-opacity="0.38"/>
<rect y="502" width="2" height="2" fill="#BCFE2F" fill-opacity="0.38"/>
<rect x="72" y="502" width="2" height="2" fill="#BCFE2F" fill-opacity="0.38"/>
<rect x="144" y="502" width="2" height="2" fill="#BCFE2F" fill-opacity="0.38"/>
<rect x="216" y="502" width="2" height="2" fill="#BCFE2F" fill-opacity="0.38"/>
<rect x="288" y="502" width="2" height="2" fill="#BCFE2F" fill-opacity="0.38"/>
<rect x="360" y="502" width="2" height="2" fill="#BCFE2F" fill-opacity="0.38"/>
<rect x="432" y="502" width="2" height="2" fill="#BCFE2F" fill-opacity="0.38"/>
<rect x="504" y="502" width="2" height="2" fill="#BCFE2F" fill-opacity="0.38"/>
<rect x="576" y="502" width="2" height="2" fill="#BCFE2F" fill-opacity="0.38"/>
<rect x="648" y="502" width="2" height="2" fill="#BCFE2F" fill-opacity="0.38"/>
<rect x="720" y="502" width="2" height="2" fill="#BCFE2F" fill-opacity="0.38"/>
<rect x="792" y="502" width="2" height="2" fill="#BCFE2F" fill-opacity="0.38"/>
<rect x="864" y="502" width="2" height="2" fill="#BCFE2F" fill-opacity="0.38"/>
<rect x="936" y="502" width="2" height="2" fill="#BCFE2F" fill-opacity="0.38"/>
<rect x="1008" y="502" width="2" height="2" fill="#BCFE2F" fill-opacity="0.38"/>
<rect x="1080" y="502" width="2" height="2" fill="#BCFE2F" fill-opacity="0.38"/>
<rect x="1152" y="502" width="2" height="2" fill="#BCFE2F" fill-opacity="0.38"/>
<rect x="1224" y="502" width="2" height="2" fill="#BCFE2F" fill-opacity="0.38"/>
<rect x="1296" y="502" width="2" height="2" fill="#BCFE2F" fill-opacity="0.38"/>
<rect x="1368" y="502" width="2" height="2" fill="#BCFE2F" fill-opacity="0.38"/>
<rect y="574" width="2" height="2" fill="#BCFE2F" fill-opacity="0.38"/>
<rect x="72" y="574" width="2" height="2" fill="#BCFE2F" fill-opacity="0.38"/>
<rect x="144" y="574" width="2" height="2" fill="#BCFE2F" fill-opacity="0.38"/>
<rect x="216" y="574" width="2" height="2" fill="#BCFE2F" fill-opacity="0.38"/>
<rect x="288" y="574" width="2" height="2" fill="#BCFE2F" fill-opacity="0.38"/>
<rect x="360" y="574" width="2" height="2" fill="#BCFE2F" fill-opacity="0.38"/>
<rect x="432" y="574" width="2" height="2" fill="#BCFE2F" fill-opacity="0.38"/>
<rect x="504" y="574" width="2" height="2" fill="#BCFE2F" fill-opacity="0.38"/>
<rect x="576" y="574" width="2" height="2" fill="#BCFE2F" fill-opacity="0.38"/>
<rect x="648" y="574" width="2" height="2" fill="#BCFE2F" fill-opacity="0.38"/>
<rect x="720" y="574" width="2" height="2" fill="#BCFE2F" fill-opacity="0.38"/>
<rect x="792" y="574" width="2" height="2" fill="#BCFE2F" fill-opacity="0.38"/>
<rect x="864" y="574" width="2" height="2" fill="#BCFE2F" fill-opacity="0.38"/>
<rect x="936" y="574" width="2" height="2" fill="#BCFE2F" fill-opacity="0.38"/>
<rect x="1008" y="574" width="2" height="2" fill="#BCFE2F" fill-opacity="0.38"/>
<rect x="1080" y="574" width="2" height="2" fill="#BCFE2F" fill-opacity="0.38"/>
<rect x="1152" y="574" width="2" height="2" fill="#BCFE2F" fill-opacity="0.38"/>
<rect x="1224" y="574" width="2" height="2" fill="#BCFE2F" fill-opacity="0.38"/>
<rect x="1296" y="574" width="2" height="2" fill="#BCFE2F" fill-opacity="0.38"/>
<rect x="1368" y="574" width="2" height="2" fill="#BCFE2F" fill-opacity="0.38"/>
<rect y="646" width="2" height="2" fill="#BCFE2F" fill-opacity="0.38"/>
<rect x="72" y="646" width="2" height="2" fill="#BCFE2F" fill-opacity="0.38"/>
<rect x="144" y="646" width="2" height="2" fill="#BCFE2F" fill-opacity="0.38"/>
<rect x="216" y="646" width="2" height="2" fill="#BCFE2F" fill-opacity="0.38"/>
<rect x="288" y="646" width="2" height="2" fill="#BCFE2F" fill-opacity="0.38"/>
<rect x="360" y="646" width="2" height="2" fill="#BCFE2F" fill-opacity="0.38"/>
<rect x="432" y="646" width="2" height="2" fill="#BCFE2F" fill-opacity="0.38"/>
<rect x="504" y="646" width="2" height="2" fill="#BCFE2F" fill-opacity="0.38"/>
<rect x="576" y="646" width="2" height="2" fill="#BCFE2F" fill-opacity="0.38"/>
<rect x="648" y="646" width="2" height="2" fill="#BCFE2F" fill-opacity="0.38"/>
<rect x="720" y="646" width="2" height="2" fill="#BCFE2F" fill-opacity="0.38"/>
<rect x="792" y="646" width="2" height="2" fill="#BCFE2F" fill-opacity="0.38"/>
<rect x="864" y="646" width="2" height="2" fill="#BCFE2F" fill-opacity="0.38"/>
<rect x="936" y="646" width="2" height="2" fill="#BCFE2F" fill-opacity="0.38"/>
<rect x="1008" y="646" width="2" height="2" fill="#BCFE2F" fill-opacity="0.38"/>
<rect x="1080" y="646" width="2" height="2" fill="#BCFE2F" fill-opacity="0.38"/>
<rect x="1152" y="646" width="2" height="2" fill="#BCFE2F" fill-opacity="0.38"/>
<rect x="1224" y="646" width="2" height="2" fill="#BCFE2F" fill-opacity="0.38"/>
<rect x="1296" y="646" width="2" height="2" fill="#BCFE2F" fill-opacity="0.38"/>
<rect x="1368" y="646" width="2" height="2" fill="#BCFE2F" fill-opacity="0.38"/>
<rect y="718" width="2" height="2" fill="#BCFE2F" fill-opacity="0.38"/>
<rect x="72" y="718" width="2" height="2" fill="#BCFE2F" fill-opacity="0.38"/>
<rect x="144" y="718" width="2" height="2" fill="#BCFE2F" fill-opacity="0.38"/>
<rect x="216" y="718" width="2" height="2" fill="#BCFE2F" fill-opacity="0.38"/>
<rect x="288" y="718" width="2" height="2" fill="#BCFE2F" fill-opacity="0.38"/>
<rect x="360" y="718" width="2" height="2" fill="#BCFE2F" fill-opacity="0.38"/>
<rect x="432" y="718" width="2" height="2" fill="#BCFE2F" fill-opacity="0.38"/>
<rect x="504" y="718" width="2" height="2" fill="#BCFE2F" fill-opacity="0.38"/>
<rect x="576" y="718" width="2" height="2" fill="#BCFE2F" fill-opacity="0.38"/>
<rect x="648" y="718" width="2" height="2" fill="#BCFE2F" fill-opacity="0.38"/>
<rect x="720" y="718" width="2" height="2" fill="#BCFE2F" fill-opacity="0.38"/>
<rect x="792" y="718" width="2" height="2" fill="#BCFE2F" fill-opacity="0.38"/>
<rect x="864" y="718" width="2" height="2" fill="#BCFE2F" fill-opacity="0.38"/>
<rect x="936" y="718" width="2" height="2" fill="#BCFE2F" fill-opacity="0.38"/>
<rect x="1008" y="718" width="2" height="2" fill="#BCFE2F" fill-opacity="0.38"/>
<rect x="1080" y="718" width="2" height="2" fill="#BCFE2F" fill-opacity="0.38"/>
<rect x="1152" y="718" width="2" height="2" fill="#BCFE2F" fill-opacity="0.38"/>
<rect x="1224" y="718" width="2" height="2" fill="#BCFE2F" fill-opacity="0.38"/>
<rect x="1296" y="718" width="2" height="2" fill="#BCFE2F" fill-opacity="0.38"/>
<rect x="1368" y="718" width="2" height="2" fill="#BCFE2F" fill-opacity="0.38"/>
<rect y="790" width="2" height="2" fill="#BCFE2F" fill-opacity="0.38"/>
<rect x="72" y="790" width="2" height="2" fill="#BCFE2F" fill-opacity="0.38"/>
<rect x="144" y="790" width="2" height="2" fill="#BCFE2F" fill-opacity="0.38"/>
<rect x="216" y="790" width="2" height="2" fill="#BCFE2F" fill-opacity="0.38"/>
<rect x="288" y="790" width="2" height="2" fill="#BCFE2F" fill-opacity="0.38"/>
<rect x="360" y="790" width="2" height="2" fill="#BCFE2F" fill-opacity="0.38"/>
<rect x="432" y="790" width="2" height="2" fill="#BCFE2F" fill-opacity="0.38"/>
<rect x="504" y="790" width="2" height="2" fill="#BCFE2F" fill-opacity="0.38"/>
<rect x="576" y="790" width="2" height="2" fill="#BCFE2F" fill-opacity="0.38"/>
<rect x="648" y="790" width="2" height="2" fill="#BCFE2F" fill-opacity="0.38"/>
<rect x="720" y="790" width="2" height="2" fill="#BCFE2F" fill-opacity="0.38"/>
<rect x="792" y="790" width="2" height="2" fill="#BCFE2F" fill-opacity="0.38"/>
<rect x="864" y="790" width="2" height="2" fill="#BCFE2F" fill-opacity="0.38"/>
<rect x="936" y="790" width="2" height="2" fill="#BCFE2F" fill-opacity="0.38"/>
<rect x="1008" y="790" width="2" height="2" fill="#BCFE2F" fill-opacity="0.38"/>
<rect x="1080" y="790" width="2" height="2" fill="#BCFE2F" fill-opacity="0.38"/>
<rect x="1152" y="790" width="2" height="2" fill="#BCFE2F" fill-opacity="0.38"/>
<rect x="1224" y="790" width="2" height="2" fill="#BCFE2F" fill-opacity="0.38"/>
<rect x="1296" y="790" width="2" height="2" fill="#BCFE2F" fill-opacity="0.38"/>
<rect x="1368" y="790" width="2" height="2" fill="#BCFE2F" fill-opacity="0.38"/>
<rect y="862" width="2" height="2" fill="#BCFE2F" fill-opacity="0.38"/>
<rect x="72" y="862" width="2" height="2" fill="#BCFE2F" fill-opacity="0.38"/>
<rect x="144" y="862" width="2" height="2" fill="#BCFE2F" fill-opacity="0.38"/>
<rect x="216" y="862" width="2" height="2" fill="#BCFE2F" fill-opacity="0.38"/>
<rect x="288" y="862" width="2" height="2" fill="#BCFE2F" fill-opacity="0.38"/>
<rect x="360" y="862" width="2" height="2" fill="#BCFE2F" fill-opacity="0.38"/>
<rect x="432" y="862" width="2" height="2" fill="#BCFE2F" fill-opacity="0.38"/>
<rect x="504" y="862" width="2" height="2" fill="#BCFE2F" fill-opacity="0.38"/>
<rect x="576" y="862" width="2" height="2" fill="#BCFE2F" fill-opacity="0.38"/>
<rect x="648" y="862" width="2" height="2" fill="#BCFE2F" fill-opacity="0.38"/>
<rect x="720" y="862" width="2" height="2" fill="#BCFE2F" fill-opacity="0.38"/>
<rect x="792" y="862" width="2" height="2" fill="#BCFE2F" fill-opacity="0.38"/>
<rect x="864" y="862" width="2" height="2" fill="#BCFE2F" fill-opacity="0.38"/>
<rect x="936" y="862" width="2" height="2" fill="#BCFE2F" fill-opacity="0.38"/>
<rect x="1008" y="862" width="2" height="2" fill="#BCFE2F" fill-opacity="0.38"/>
<rect x="1080" y="862" width="2" height="2" fill="#BCFE2F" fill-opacity="0.38"/>
<rect x="1152" y="862" width="2" height="2" fill="#BCFE2F" fill-opacity="0.38"/>
<rect x="1224" y="862" width="2" height="2" fill="#BCFE2F" fill-opacity="0.38"/>
<rect x="1296" y="862" width="2" height="2" fill="#BCFE2F" fill-opacity="0.38"/>
<rect x="1368" y="862" width="2" height="2" fill="#BCFE2F" fill-opacity="0.38"/>
<rect y="934" width="2" height="2" fill="#BCFE2F" fill-opacity="0.38"/>
<rect x="72" y="934" width="2" height="2" fill="#BCFE2F" fill-opacity="0.38"/>
<rect x="144" y="934" width="2" height="2" fill="#BCFE2F" fill-opacity="0.38"/>
<rect x="216" y="934" width="2" height="2" fill="#BCFE2F" fill-opacity="0.38"/>
<rect x="288" y="934" width="2" height="2" fill="#BCFE2F" fill-opacity="0.38"/>
<rect x="360" y="934" width="2" height="2" fill="#BCFE2F" fill-opacity="0.38"/>
<rect x="432" y="934" width="2" height="2" fill="#BCFE2F" fill-opacity="0.38"/>
<rect x="504" y="934" width="2" height="2" fill="#BCFE2F" fill-opacity="0.38"/>
<rect x="576" y="934" width="2" height="2" fill="#BCFE2F" fill-opacity="0.38"/>
<rect x="648" y="934" width="2" height="2" fill="#BCFE2F" fill-opacity="0.38"/>
<rect x="720" y="934" width="2" height="2" fill="#BCFE2F" fill-opacity="0.38"/>
<rect x="792" y="934" width="2" height="2" fill="#BCFE2F" fill-opacity="0.38"/>
<rect x="864" y="934" width="2" height="2" fill="#BCFE2F" fill-opacity="0.38"/>
<rect x="936" y="934" width="2" height="2" fill="#BCFE2F" fill-opacity="0.38"/>
<rect x="1008" y="934" width="2" height="2" fill="#BCFE2F" fill-opacity="0.38"/>
<rect x="1080" y="934" width="2" height="2" fill="#BCFE2F" fill-opacity="0.38"/>
<rect x="1152" y="934" width="2" height="2" fill="#BCFE2F" fill-opacity="0.38"/>
<rect x="1224" y="934" width="2" height="2" fill="#BCFE2F" fill-opacity="0.38"/>
<rect x="1296" y="934" width="2" height="2" fill="#BCFE2F" fill-opacity="0.38"/>
<rect x="1368" y="934" width="2" height="2" fill="#BCFE2F" fill-opacity="0.38"/>
<rect y="1006" width="2" height="2" fill="#BCFE2F" fill-opacity="0.38"/>
<rect x="72" y="1006" width="2" height="2" fill="#BCFE2F" fill-opacity="0.38"/>
<rect x="144" y="1006" width="2" height="2" fill="#BCFE2F" fill-opacity="0.38"/>
<rect x="216" y="1006" width="2" height="2" fill="#BCFE2F" fill-opacity="0.38"/>
<rect x="288" y="1006" width="2" height="2" fill="#BCFE2F" fill-opacity="0.38"/>
<rect x="360" y="1006" width="2" height="2" fill="#BCFE2F" fill-opacity="0.38"/>
<rect x="432" y="1006" width="2" height="2" fill="#BCFE2F" fill-opacity="0.38"/>
<rect x="504" y="1006" width="2" height="2" fill="#BCFE2F" fill-opacity="0.38"/>
<rect x="576" y="1006" width="2" height="2" fill="#BCFE2F" fill-opacity="0.38"/>
<rect x="648" y="1006" width="2" height="2" fill="#BCFE2F" fill-opacity="0.38"/>
<rect x="720" y="1006" width="2" height="2" fill="#BCFE2F" fill-opacity="0.38"/>
<rect x="792" y="1006" width="2" height="2" fill="#BCFE2F" fill-opacity="0.38"/>
<rect x="864" y="1006" width="2" height="2" fill="#BCFE2F" fill-opacity="0.38"/>
<rect x="936" y="1006" width="2" height="2" fill="#BCFE2F" fill-opacity="0.38"/>
<rect x="1008" y="1006" width="2" height="2" fill="#BCFE2F" fill-opacity="0.38"/>
<rect x="1080" y="1006" width="2" height="2" fill="#BCFE2F" fill-opacity="0.38"/>
<rect x="1152" y="1006" width="2" height="2" fill="#BCFE2F" fill-opacity="0.38"/>
<rect x="1224" y="1006" width="2" height="2" fill="#BCFE2F" fill-opacity="0.38"/>
<rect x="1296" y="1006" width="2" height="2" fill="#BCFE2F" fill-opacity="0.38"/>
<rect x="1368" y="1006" width="2" height="2" fill="#BCFE2F" fill-opacity="0.38"/>
</svg>
